<svg width="600" height="385" viewBox="0 0 600 385" fill="none" xmlns="http://www.w3.org/2000/svg">
<path d="M103.499 0L0 0L85.2341 292.231C85.2341 292.231 91.1504 319.603 103.499 330.79C116.5 342.568 128.574 345.257 146.116 344.995C162.907 344.745 186.703 330.79 186.703 330.79L103.499 0Z" fill="#FF0000"/>
<path d="M599.793 39.4105L494.045 39.4105L439.472 251.744L337.312 59.7043C337.312 59.7043 334.423 53.2792 331.914 49.5574C320.814 33.0889 305.797 26.137 287.268 25.2048C265.736 24.1214 247.375 30.8656 234.504 49.5574C231.941 53.279 228.944 59.7043 228.944 59.7043L153.329 197.702L185.799 331.628L287.268 155.085L413.09 362.083C421.467 377.057 433.345 384.138 450.501 384.389C468.424 384.651 480.761 381.962 494.045 370.184C506.661 358.998 512.706 331.628 512.706 331.628L599.793 39.4105Z" fill="white"/>
</svg>
